<?xml version="1.0" encoding="utf-8"?>
<!-- Generator: Adobe Illustrator 24.1.1, SVG Export Plug-In . SVG Version: 6.00 Build 0)  -->
<svg version="1.1" id="Layer_1" xmlns="http://www.w3.org/2000/svg" xmlns:xlink="http://www.w3.org/1999/xlink" x="0px" y="0px"
	 width="64px" height="64px" viewBox="0 0 64 64" style="enable-background:new 0 0 64 64;" xml:space="preserve">
<style type="text/css">
	.st0{fill:#666666;stroke:#000000;stroke-width:4;stroke-linecap:square;stroke-linejoin:round;stroke-miterlimit:10;}
	.st1{fill:#FFFFFF;stroke:#000000;stroke-width:0.75;stroke-miterlimit:10;}
</style>
<rect x="10.6" y="2" class="st0" width="43" height="60.2"/>
<g>
	<path class="st1" d="M14.6,33.1c-1.7,0-1.7-2.6,0-2.6h22.9c2.6,0,5.7,0,8.3,0.9c7.5,3,5.8,14.4-2.3,15.2c-4.5,0.3-7.5-3-8.2-7.2
		c-0.3-1.7,2.3-1.9,2.6-0.3c0.5,3,2.2,5.1,5.3,4.9c5.6-0.5,6.5-8.2,1.6-10c-2.1-0.8-4.8-0.8-7.3-0.8H14.6z"/>
	<path class="st1" d="M14.6,27.3c-1.7,0-1.7-2.6,0-2.6h20.7c1.6,0,3.2,0,4.3-0.5c2.6-1,2.2-4.9-0.7-5.2c-1.7-0.1-2.5,1-2.9,2.6
		c-0.1,1.7-2.9,1.4-2.6-0.3c0.5-3,2.6-5.2,5.7-4.9c5.6,0.5,6.6,8.3,1.6,10.4c-1.7,0.7-3.7,0.7-5.5,0.7H14.6V27.3z"/>
	<path class="st1" d="M14.6,39.4c-1.7,0-1.7-2.6,0-2.6h10.9c1.6,0,3.5,0,5.3,0.7c5.1,1.9,4,9.7-1.6,10.1c-3.1,0.3-5.3-1.9-5.6-4.8
		c-0.3-1.7,2.3-2.2,2.5-0.5c0.3,1.6,1.3,2.8,2.9,2.6c3-0.1,3.4-4.2,0.9-5.2c-1.1-0.5-2.9-0.5-4.3-0.5H14.6V39.4z"/>
</g>
</svg>
