<?xml version="1.0" encoding="utf-8"?>
<!-- Generator: Adobe Illustrator 24.1.1, SVG Export Plug-In . SVG Version: 6.00 Build 0)  -->
<svg version="1.1" id="Layer_1" xmlns="http://www.w3.org/2000/svg" xmlns:xlink="http://www.w3.org/1999/xlink" x="0px" y="0px"
	 width="64px" height="64px" viewBox="0 0 64 64" style="enable-background:new 0 0 64 64;" xml:space="preserve">
<style type="text/css">
	.st0{fill:#777777;}
	.st1{fill:#FFFFFF;}
</style>
<g>
	<circle class="st0" cx="32" cy="32" r="30"/>
</g>
<g>
	<g>
		<path class="st1" d="M44.4,47.5c-4.2,0-7.4-3.1-8.1-7.7c-0.1-0.6,0.1-1.1,0.3-1.3c0.3-0.4,0.8-0.6,1.3-0.6c0.7,0,1.6,0.4,1.8,1.4
			C40,41,41,44,44.3,44c0,0,0.2,0,0.3,0c2.9-0.3,4.2-2.5,4.5-4.3c0.3-1.9-0.6-4.3-3-5.2c-2-0.7-4.8-0.7-7.3-0.7H13
			c-1.1,0-1.7-0.9-1.7-1.7s0.6-1.7,1.7-1.7h25.9c2.6,0,5.9,0,8.6,0.9c3.7,1.4,5.7,4.9,5.1,8.9c-0.5,3.3-3,6.9-7.5,7.3
			C44.8,47.5,44.6,47.5,44.4,47.5z"/>
		<path d="M38.9,30.7c2.7,0,5.9,0,8.5,0.9c7.7,3,6,14.7-2.4,15.4c-0.2,0-0.4,0-0.6,0c-4.2,0-7.1-3.2-7.8-7.4c-0.2-1,0.5-1.5,1.3-1.5
			c0.6,0,1.3,0.4,1.4,1.1c0.5,2.9,2.1,5,5,5c0.1,0,0.2,0,0.3,0c5.7-0.5,6.6-8.4,1.6-10.2c-2-0.8-4.9-0.8-7.4-0.8H13
			c-1.8,0-1.8-2.7,0-2.7H38.9 M38.9,29.9H13C11.7,29.9,11,31,11,32c0,1,0.7,2.1,2.1,2.1h25.9c2.5,0,5.2,0,7.1,0.7
			c2.4,0.9,3,3.1,2.8,4.8c-0.2,1.7-1.4,3.8-4.2,4c-0.1,0-0.2,0-0.3,0c-2.9,0-4-2.4-4.3-4.4c-0.2-1.1-1.1-1.8-2.2-1.8
			c-0.7,0-1.2,0.3-1.6,0.7c-0.4,0.4-0.5,1-0.4,1.6c0.7,4.8,4.2,8,8.5,8c0.2,0,0.4,0,0.7,0c4.8-0.4,7.4-4.1,7.9-7.6
			c0.6-4.2-1.5-7.8-5.3-9.3C44.9,29.9,41.6,29.9,38.9,29.9L38.9,29.9z"/>
	</g>
	<g>
		<path class="st1" d="M13,25.2c-1.1,0-1.7-0.9-1.7-1.7s0.6-1.7,1.7-1.7h21.1c1.6,0,3.2,0,4.3-0.5c1.3-0.5,1.6-1.7,1.5-2.6
			c-0.1-0.9-0.8-1.9-2.2-2.1c-0.1,0-0.2,0-0.3,0c-1.1,0-1.8,0.8-2.2,2.4c-0.1,1-0.9,1.5-1.6,1.5c-0.5,0-1-0.2-1.4-0.6
			c-0.3-0.4-0.5-0.8-0.4-1.3c0.5-3.2,2.8-5.4,5.7-5.4c0.2,0,0.4,0,0.6,0c2.8,0.2,4.8,2.2,5.2,5c0.3,2.3-0.6,5.1-3.5,6.3
			c-1.8,0.7-3.9,0.7-5.7,0.7H13z"/>
		<path d="M37.5,13.5c0.2,0,0.4,0,0.6,0c5.7,0.5,6.8,8.5,1.6,10.6c-1.8,0.7-3.8,0.7-5.5,0.7H13c-1.8,0-1.8-2.7,0-2.7h21.1
			c1.6,0,3.3,0,4.4-0.5c2.7-1.1,2.2-5-0.8-5.4c-0.1,0-0.2,0-0.3,0c-1.5,0-2.2,1.2-2.5,2.7c-0.1,0.8-0.7,1.2-1.3,1.2
			c-0.7,0-1.5-0.5-1.4-1.5C32.7,15.8,34.7,13.5,37.5,13.5 M37.5,12.8L37.5,12.8c-3,0-5.4,2.3-6,5.7l0,0l0,0
			c-0.1,0.6,0.1,1.2,0.5,1.6c0.4,0.4,1,0.7,1.6,0.7c1.1,0,1.9-0.7,2-1.8c0.4-1.8,1.2-2.1,1.8-2.1c0.1,0,0.2,0,0.2,0
			c1.2,0.1,1.7,1,1.8,1.8c0.1,0.7-0.2,1.7-1.3,2.2c-1,0.4-2.6,0.4-4.2,0.4H13c-1.3,0-2.1,1.1-2.1,2.1c0,1,0.7,2.1,2.1,2.1h21.2
			c1.8,0,3.9,0,5.8-0.7c3.1-1.3,4.1-4.3,3.8-6.7c-0.4-3-2.6-5-5.6-5.3C38,12.8,37.7,12.8,37.5,12.8L37.5,12.8z"/>
	</g>
	<g>
		<path class="st1" d="M27.3,50.9c-2.9,0-5.1-2.1-5.5-5.2c-0.1-0.6,0.1-1.1,0.3-1.4c0.3-0.4,0.8-0.6,1.4-0.6c0.7,0,1.5,0.4,1.6,1.4
			c0.1,0.7,0.7,2.4,2.2,2.4l0,0c0.1,0,0.2,0,0.2,0c1.4-0.1,2-1,2.2-1.9c0.2-1-0.2-2.2-1.4-2.7c-1.1-0.4-2.8-0.4-4.2-0.4H13
			c-1.1,0-1.7-0.9-1.7-1.7c0-0.9,0.6-1.7,1.7-1.7h11.1c1.6,0,3.7,0,5.5,0.8c2.9,1.1,3.8,3.9,3.5,6.1c-0.4,2.8-2.4,4.7-5.2,5
			C27.7,50.8,27.5,50.9,27.3,50.9z"/>
		<path d="M24.1,39.3c1.6,0,3.6,0,5.4,0.8c5.2,2,4.1,9.9-1.6,10.4c-0.2,0-0.4,0-0.6,0c-2.9,0-4.8-2.2-5.1-4.9
			c-0.2-1,0.6-1.6,1.3-1.6c0.6,0,1.1,0.3,1.2,1.1c0.3,1.5,1.2,2.7,2.6,2.7c0.1,0,0.2,0,0.3,0c3-0.2,3.4-4.3,0.9-5.4
			C27.3,42,25.5,42,24.1,42H13c-1.8,0-1.8-2.7,0-2.7H24.1 M24.1,38.5H13c-1.3,0-2.1,1.1-2.1,2.1c0,1,0.7,2.1,2.1,2.1h11.1
			c1.4,0,3.1,0,4.1,0.4c1,0.4,1.3,1.5,1.1,2.3c-0.1,0.4-0.4,1.5-1.8,1.6c-0.1,0-0.2,0-0.2,0c-1.2,0-1.7-1.3-1.8-2.1
			c-0.1-1-0.9-1.7-1.9-1.7c-0.6,0-1.3,0.3-1.7,0.8c-0.4,0.5-0.5,1-0.4,1.7c0.4,3.3,2.8,5.5,5.8,5.5c0.2,0,0.5,0,0.7,0
			c3.4-0.3,5.2-2.9,5.6-5.3c0.3-2.4-0.7-5.4-3.8-6.5C27.9,38.5,25.8,38.5,24.1,38.5L24.1,38.5z"/>
	</g>
</g>
</svg>
