<?xml version="1.0" encoding="utf-8"?>
<!-- Generator: Adobe Illustrator 24.1.1, SVG Export Plug-In . SVG Version: 6.00 Build 0)  -->
<svg version="1.1" id="Layer_1" xmlns="http://www.w3.org/2000/svg" xmlns:xlink="http://www.w3.org/1999/xlink" x="0px" y="0px"
	 width="64px" height="64px" viewBox="0 0 64 64" style="enable-background:new 0 0 64 64;" xml:space="preserve">
<style type="text/css">
	.st0{fill:#CFE6CF;stroke:#000000;stroke-width:4;stroke-linecap:square;stroke-linejoin:round;stroke-miterlimit:10;}
	.st1{fill:#006600;stroke:#000000;stroke-linejoin:round;stroke-miterlimit:10;}
</style>
<rect x="10.6" y="2" class="st0" width="43" height="60.2"/>
<path class="st1" d="M49.1,13.7c0,1.9,0,16.2-7.3,23.9c-6.9,7.2-14,8.9-19,6.6L17.1,50c-0.5,0.5-1.4,0.5-1.9,0s-0.5-1.4,0-1.9
	l8.3-8.3h5.8c0.7,0,1.4-0.6,1.4-1.4S30.1,37,29.3,37h-3.1l7.9-7.9H40c0.7,0,1.4-0.6,1.4-1.4c0-0.7-0.6-1.4-1.4-1.4h-3.1l2.8-2.8
	c0.5-0.5,0.5-1.4,0-1.9s-1.4-0.5-1.9,0l-8.3,8.3v-5c0-0.7-0.6-1.4-1.4-1.4c-0.7,0-1.4,0.6-1.4,1.4V33L19,40.8
	c-2.2-3.8-2.6-11.6,4.5-18.7c9.5-9.5,15.3-4.8,25.6-8.6C49,13.5,49.1,13.6,49.1,13.7z"/>
</svg>
