<?xml version="1.0" encoding="utf-8"?>
<!-- Generator: Adobe Illustrator 24.1.1, SVG Export Plug-In . SVG Version: 6.00 Build 0)  -->
<svg version="1.1" id="Layer_1" xmlns="http://www.w3.org/2000/svg" xmlns:xlink="http://www.w3.org/1999/xlink" x="0px" y="0px"
	 width="64px" height="64px" viewBox="0 0 64 64" style="enable-background:new 0 0 64 64;" xml:space="preserve">
<style type="text/css">
	.st0{fill:#AAAAAA;}
</style>
<g>
	<path class="st0" d="M28.8,56c-0.8,0-1.5-0.7-1.5-1.5V33.2L7.8,10C7.5,9.6,7.5,9.1,7.7,8.6C8,8.2,8.4,8,9,8H55c0.5,0,1,0.3,1.2,0.7
		c0.3,0.4,0.2,1-0.1,1.4L36.7,33.2v21.3c0,0.8-0.7,1.5-1.5,1.5H28.8z"/>
	<path d="M55,8.5c0.3,0,0.6,0.2,0.8,0.4C56,9.1,56,9.5,55.8,9.7L36.2,33.1v21.5c0,0.6-0.4,1-1,1h-6.5c-0.6,0-1-0.4-1-1V33.1L8.2,9.7
		C8,9.5,8,9.1,8.2,8.9C8.3,8.6,8.6,8.5,9,8.5H55 M55,7.5H9c-0.7,0-1.3,0.3-1.7,0.9C6.9,9,7,9.8,7.5,10.3l19.3,23.1v21.1
		c0,1.1,0.9,2,2,2h6.5c1.1,0,2-0.9,2-2V33.4l19.3-23.1c0.5-0.6,0.5-1.3,0.2-2C56.4,7.8,55.7,7.5,55,7.5L55,7.5z"/>
</g>
</svg>
