<svg xmlns="http://www.w3.org/2000/svg" xmlns:xlink="http://www.w3.org/1999/xlink" version="1.1" x="0px" y="0px" viewBox="0 0 66 82.5" enable-background="new 0 0 66 66" xml:space="preserve"><g><g><path d="M37,1.1c0.2,0,0.3,0,0.5,0.1c-0.1-0.1-0.1-0.1-0.1-0.1H37z"/><path d="M45.4,33.6c2.9,4.4,16.6,27-7.2,31c0.7-0.8,1.2-1.6,1.5-2.7c2-6.1-5-10.6-5-10.6c2.8,4,1.7,6.9,1.7,6.9    c-12.5-4.6-7.5-21.1-7.5-21.1c-8.7,9.7-8.2,22.1-1.8,27.8c-25.1-3-11.4-35.4-11.4-35.4c1.8-6-2.9-8.5-2.9-8.5    c8.1,0.8,10.2,7.3,10.2,7.3c-1.3-7.4,7.3-9.5,13.4-16.9c5.5-6.8,1.7-9.7,1-10.2c7.4,1.3,7.4,12.3,3.2,16.8c-2.6,2.7,0,7.3,3.5,6.5    c8-1.8,9.6,4.6,9.6,4.6c-6.9-2-8.6-0.1-9,1.6C44.6,31.8,44.9,32.8,45.4,33.6z"/></g></g></svg>