<?xml version="1.0" encoding="utf-8"?>
<!-- Generator: Adobe Illustrator 24.1.1, SVG Export Plug-In . SVG Version: 6.00 Build 0)  -->
<svg version="1.1" id="Layer_1" xmlns="http://www.w3.org/2000/svg" xmlns:xlink="http://www.w3.org/1999/xlink" x="0px" y="0px"
	 width="64px" height="64px" viewBox="0 0 64 64" style="enable-background:new 0 0 64 64;" xml:space="preserve">
<style type="text/css">
	.st0{fill:#EBB2A1;}
	.st1{fill:#AA0000;stroke:#000000;stroke-linejoin:round;stroke-miterlimit:14;}
</style>
<g>
	<circle class="st0" cx="32" cy="32" r="30"/>
</g>
<g>
	<g>
		<path class="st1" d="M35.8,54.4c0.5-0.5,0.8-1.1,1-2c1.4-4.2-3.5-7.5-3.5-7.5c2.2,2.9,1.2,4.8,1.2,4.8c-8.9-3.3-5.3-14.9-5.3-14.9
			c-6.2,6.9-6,15.6-1.3,19.7c-17.9-2.3-8-25.1-8-25.1c1.2-4.2-2.2-6.1-2.2-6.1c5.9,0.5,7.2,5.2,7.2,5.2c-0.8-5.2,5.2-6.7,9.6-12
			c3.8-4.8,1.2-7,0.6-7.2c5.2,0.8,5.2,8.8,2.4,11.9c-1.9,2,0,5.2,2.5,4.6c5.8-1.3,6.9,3.2,6.9,3.2c-4.8-1.4-6.4-0.2-6.4,1.1
			C40.5,32.3,52.7,51.5,35.8,54.4z"/>
	</g>
</g>
</svg>
