<?xml version="1.0" encoding="utf-8"?>
<!-- Generator: Adobe Illustrator 24.1.1, SVG Export Plug-In . SVG Version: 6.00 Build 0)  -->
<svg version="1.1" id="Layer_1" xmlns="http://www.w3.org/2000/svg" xmlns:xlink="http://www.w3.org/1999/xlink" x="0px" y="0px"
	 width="64px" height="64px" viewBox="0 0 64 64" style="enable-background:new 0 0 64 64;" xml:space="preserve">
<style type="text/css">
	.st0{fill:#95261D;}
	.st1{fill:#744820;}
	.st2{fill:#E5E5E5;}
	.st3{fill:#FCBF49;}
</style>
<path class="st0" d="M59.9,29.7C58.8,16.2,47.8,5.2,34.3,4.1C17,2.7,2.7,17,4.1,34.3c1.1,13.6,12.1,24.6,25.6,25.6
	C47,61.3,61.3,47,59.9,29.7z"/>
<path d="M32,6c14.3,0,26,11.7,26,26S46.3,58,32,58S6,46.3,6,32S17.7,6,32,6 M32,2C15.4,2,2,15.4,2,32s13.4,30,30,30s30-13.4,30-30
	S48.6,2,32,2L32,2z"/>
<g>
	<rect x="43.2" y="19.5" transform="matrix(0.7071 -0.7071 0.7071 0.7071 -1.5029 36.868)" class="st1" width="1.2" height="1.5"/>
	<polygon class="st2" points="43.9,18.9 45.1,20.1 46.3,19.7 48.7,15.3 44.3,17.7 	"/>
	
		<rect x="10.2" y="33.9" transform="matrix(0.7071 -0.7071 0.7071 0.7071 -15.8592 30.9228)" class="st3" width="38.4" height="1.5"/>
	<path d="M49.2,14.6c-0.1-0.1-0.3-0.1-0.4,0L44,17.2c-0.1,0.1-0.2,0.2-0.2,0.3l-0.4,1.3c0,0,0,0,0,0L14.6,47.7l1.8,1.8L44,21.8
		c0,0,0,0,0,0c0,0,0,0,0,0l1.1-1.1c0,0,0,0,0,0l1.3-0.4c0.1,0,0.2-0.1,0.3-0.2l2.6-4.9C49.5,15,49.4,14.7,49.2,14.6z M16.3,48.7
		l-1-1l27.1-27.1l1,1L16.3,48.7z M43.9,21.2l-1-1l0.8-0.8l1,1L43.9,21.2z M46.3,19.7l-1.2,0.3l-1.2-1.2l0.3-1.2l4.5-2.4L46.3,19.7z"
		/>
</g>
<g>
	<rect x="19.5" y="19.7" transform="matrix(0.7071 -0.7071 0.7071 0.7071 -8.3871 20.248)" class="st1" width="1.5" height="1.2"/>
	<polygon class="st2" points="20.1,18.9 18.9,20.1 17.7,19.7 15.3,15.3 19.7,17.7 	"/>
	
		<rect x="33.9" y="15.4" transform="matrix(0.7071 -0.7071 0.7071 0.7071 -14.3337 34.6027)" class="st3" width="1.5" height="38.4"/>
	<path d="M14.6,15.2l2.6,4.9c0.1,0.1,0.2,0.2,0.3,0.2l1.3,0.4c0,0,0,0,0,0l1.1,1.1c0,0,0,0,0,0c0,0,0,0,0,0l27.7,27.7l1.8-1.8
		L20.6,18.8c0,0,0,0,0,0l-0.4-1.3c0-0.1-0.1-0.2-0.2-0.3l-4.9-2.6c-0.1-0.1-0.3-0.1-0.4,0C14.6,14.7,14.5,15,14.6,15.2z M20.5,21.6
		l1-1l27.1,27.1l-1,1L20.5,21.6z M19.3,20.4l1-1l0.8,0.8l-1,1L19.3,20.4z M15.3,15.3l4.5,2.4l0.3,1.2l-1.2,1.2l-1.2-0.3L15.3,15.3z"
		/>
</g>
<g>
	<g>
		<path class="st1" d="M32,45.7c-3.3,0-6.3-1.2-8.3-3.3c-1.7-1.8-2.6-4.1-2.5-6.7l0-0.4l0.4-0.1c1.6-0.4,2.4-2,2.5-3.3
			c-0.1-1.2-0.8-2.8-2.5-3.2l-0.4-0.1l0-0.4c-0.1-2.6,0.7-5,2.5-6.7c2-2.1,5-3.3,8.3-3.3c3.3,0,6.3,1.2,8.3,3.3
			c1.7,1.8,2.6,4.1,2.5,6.7l0,0.4l-0.4,0.1c-1.6,0.4-2.3,2-2.5,3.3c0.1,1.1,0.8,2.8,2.5,3.2l0.4,0.1l0,0.4c0.1,2.6-0.7,5-2.5,6.7
			C38.3,44.5,35.3,45.7,32,45.7v-0.5V45.7z"/>
		<path d="M32,18.8C32,18.8,32,18.8,32,18.8L32,18.8C32,18.8,32,18.8,32,18.8c5.3,0,10.5,3.4,10.3,9.5c-1.7,0.5-2.7,2.1-2.8,3.7
			c0.2,1.6,1.1,3.3,2.8,3.7c0.3,6.1-4.9,9.5-10.2,9.5c0,0,0,0,0,0v0c0,0,0,0,0,0c-5.3,0-10.5-3.4-10.2-9.5c1.7-0.5,2.7-2.1,2.8-3.7
			c-0.2-1.6-1.1-3.3-2.8-3.7C21.5,22.1,26.7,18.8,32,18.8 M32,17.8c-3.4,0-6.5,1.2-8.6,3.4c-1.8,1.9-2.7,4.3-2.6,7.1l0,0.7l0.7,0.2
			c1.3,0.4,2,1.7,2.1,2.8c-0.1,1.1-0.7,2.4-2.1,2.8L20.8,35l0,0.7c-0.1,2.8,0.8,5.2,2.6,7.1c2.1,2.2,5.2,3.4,8.6,3.4h1l0,0
			c3-0.2,5.8-1.4,7.7-3.4c1.8-1.9,2.7-4.3,2.6-7.1l0-0.7l-0.7-0.2c-1.3-0.4-2-1.7-2.1-2.8c0.1-1.1,0.7-2.4,2.1-2.8l0.7-0.2l0-0.7
			c0.1-2.8-0.8-5.2-2.6-7.1c-1.9-2-4.6-3.2-7.6-3.4v0L32,17.8L32,17.8L32,17.8L32,17.8z"/>
	</g>
	<g>
		<g>
			<path class="st3" d="M32,34.3c-1.2,0-2.3-1-2.3-2.3s1-2.3,2.3-2.3s2.3,1,2.3,2.3S33.2,34.3,32,34.3z"/>
			<path d="M32,30.2c1,0,1.8,0.8,1.8,1.8S33,33.8,32,33.8S30.2,33,30.2,32S31,30.2,32,30.2 M32,29.2c-1.5,0-2.8,1.2-2.8,2.8
				c0,1.5,1.2,2.8,2.8,2.8c1.5,0,2.8-1.2,2.8-2.8C34.8,30.5,33.5,29.2,32,29.2L32,29.2z"/>
		</g>
		<g>
			<g>
				<g>
					<path class="st3" d="M29,43.7c-0.3,0-0.6-0.3-0.6-0.6s0.3-0.6,0.6-0.6c0.3,0,0.6,0.3,0.6,0.6S29.3,43.7,29,43.7z"/>
					<path d="M29,42.7c0.2,0,0.4,0.2,0.4,0.4c0,0.2-0.2,0.4-0.4,0.4s-0.4-0.2-0.4-0.4C28.6,42.9,28.8,42.7,29,42.7 M29,42.2
						c-0.5,0-0.9,0.4-0.9,0.9c0,0.5,0.4,0.9,0.9,0.9s0.9-0.4,0.9-0.9C29.8,42.6,29.5,42.2,29,42.2L29,42.2z"/>
				</g>
				<g>
					<path class="st3" d="M35,43.7c-0.3,0-0.6-0.3-0.6-0.6s0.3-0.6,0.6-0.6s0.6,0.3,0.6,0.6S35.4,43.7,35,43.7z"/>
					<path d="M35,42.7c0.2,0,0.4,0.2,0.4,0.4c0,0.2-0.2,0.4-0.4,0.4s-0.4-0.2-0.4-0.4C34.7,42.9,34.8,42.7,35,42.7 M35,42.2
						c-0.5,0-0.9,0.4-0.9,0.9c0,0.5,0.4,0.9,0.9,0.9s0.9-0.4,0.9-0.9C35.9,42.6,35.5,42.2,35,42.2L35,42.2z"/>
				</g>
			</g>
			<g>
				<g>
					<path class="st3" d="M29,21.5c-0.3,0-0.6-0.3-0.6-0.6c0-0.3,0.3-0.6,0.6-0.6c0.3,0,0.6,0.3,0.6,0.6
						C29.6,21.3,29.3,21.5,29,21.5z"/>
					<path d="M29,20.5c0.2,0,0.4,0.2,0.4,0.4s-0.2,0.4-0.4,0.4s-0.4-0.2-0.4-0.4S28.8,20.5,29,20.5 M29,20c-0.5,0-0.9,0.4-0.9,0.9
						s0.4,0.9,0.9,0.9s0.9-0.4,0.9-0.9S29.5,20,29,20L29,20z"/>
				</g>
				<g>
					<path class="st3" d="M35,21.5c-0.3,0-0.6-0.3-0.6-0.6c0-0.3,0.3-0.6,0.6-0.6s0.6,0.3,0.6,0.6C35.6,21.3,35.4,21.5,35,21.5z"/>
					<path d="M35,20.5c0.2,0,0.4,0.2,0.4,0.4s-0.2,0.4-0.4,0.4s-0.4-0.2-0.4-0.4S34.8,20.5,35,20.5 M35,20c-0.5,0-0.9,0.4-0.9,0.9
						s0.4,0.9,0.9,0.9s0.9-0.4,0.9-0.9S35.5,20,35,20L35,20z"/>
				</g>
			</g>
			<g>
				<g>
					<path class="st3" d="M26.1,35.6c-0.3,0-0.6-0.3-0.6-0.6s0.3-0.6,0.6-0.6c0.3,0,0.6,0.3,0.6,0.6S26.4,35.6,26.1,35.6z"/>
					<path d="M26.1,34.7c0.2,0,0.4,0.2,0.4,0.4s-0.2,0.4-0.4,0.4s-0.4-0.2-0.4-0.4S25.9,34.7,26.1,34.7 M26.1,34.2
						c-0.5,0-0.9,0.4-0.9,0.9s0.4,0.9,0.9,0.9S27,35.5,27,35S26.6,34.2,26.1,34.2L26.1,34.2z"/>
				</g>
				<g>
					<path class="st3" d="M26.1,29.6c-0.3,0-0.6-0.3-0.6-0.6c0-0.3,0.3-0.6,0.6-0.6c0.3,0,0.6,0.3,0.6,0.6
						C26.7,29.3,26.4,29.6,26.1,29.6z"/>
					<path d="M26.1,28.6c0.2,0,0.4,0.2,0.4,0.4s-0.2,0.4-0.4,0.4s-0.4-0.2-0.4-0.4S25.9,28.6,26.1,28.6 M26.1,28.1
						c-0.5,0-0.9,0.4-0.9,0.9s0.4,0.9,0.9,0.9S27,29.5,27,29S26.6,28.1,26.1,28.1L26.1,28.1z"/>
				</g>
			</g>
			<g>
				<g>
					<path class="st3" d="M37.9,35.6c-0.3,0-0.6-0.3-0.6-0.6s0.3-0.6,0.6-0.6s0.6,0.3,0.6,0.6S38.3,35.6,37.9,35.6z"/>
					<path d="M37.9,34.7c0.2,0,0.4,0.2,0.4,0.4s-0.2,0.4-0.4,0.4s-0.4-0.2-0.4-0.4S37.7,34.7,37.9,34.7 M37.9,34.2
						c-0.5,0-0.9,0.4-0.9,0.9s0.4,0.9,0.9,0.9s0.9-0.4,0.9-0.9S38.4,34.2,37.9,34.2L37.9,34.2z"/>
				</g>
				<g>
					<path class="st3" d="M37.9,29.6c-0.3,0-0.6-0.3-0.6-0.6c0-0.3,0.3-0.6,0.6-0.6s0.6,0.3,0.6,0.6C38.5,29.3,38.3,29.6,37.9,29.6z
						"/>
					<path d="M37.9,28.6c0.2,0,0.4,0.2,0.4,0.4s-0.2,0.4-0.4,0.4s-0.4-0.2-0.4-0.4S37.7,28.6,37.9,28.6 M37.9,28.1
						c-0.5,0-0.9,0.4-0.9,0.9s0.4,0.9,0.9,0.9s0.9-0.4,0.9-0.9S38.4,28.1,37.9,28.1L37.9,28.1z"/>
				</g>
			</g>
		</g>
	</g>
</g>
</svg>
