<?xml version="1.0" encoding="utf-8"?>
<!-- Generator: Adobe Illustrator 24.1.1, SVG Export Plug-In . SVG Version: 6.00 Build 0)  -->
<svg version="1.1" id="Layer_1" xmlns="http://www.w3.org/2000/svg" xmlns:xlink="http://www.w3.org/1999/xlink" x="0px" y="0px"
	 width="64px" height="64px" viewBox="0 0 64 64" style="enable-background:new 0 0 64 64;" xml:space="preserve">
<style type="text/css">
	.Drop_x0020_Shadow{fill:none;}
	.Outer_x0020_Glow_x0020_5_x0020_pt{fill:none;}
	.Blue_x0020_Neon{fill:none;stroke:#8AACDA;stroke-width:7;stroke-linecap:round;stroke-linejoin:round;}
	.Chrome_x0020_Highlight{fill:url(#SVGID_1_);stroke:#FFFFFF;stroke-width:0.3629;stroke-miterlimit:1;}
	.Jive_GS{fill:#FFDD00;}
	.Alyssa_GS{fill:#A6D0E4;}
	.st0{stroke:#000000;stroke-width:2;stroke-miterlimit:10;}
</style>
<linearGradient id="SVGID_1_" gradientUnits="userSpaceOnUse" x1="0" y1="0" x2="6.123234e-17" y2="-1">
	<stop  offset="0" style="stop-color:#656565"/>
	<stop  offset="0.618" style="stop-color:#1B1B1B"/>
	<stop  offset="0.6292" style="stop-color:#545454"/>
	<stop  offset="0.9831" style="stop-color:#3E3E3E"/>
</linearGradient>
<path class="st0" d="M-30,25.3h-1.5H-34h-1.5H-48h-10.5h-0.5l0-0.9c0-6,4.9-10.9,11-10.9c6.1,0,11,4.9,11,10.9h6.6
	c0-10.1-8.7-18.2-19.2-17.3c-8.8,0.8-16,9-16,17.7V25v0.3H-66h-4.5v13.9V53H-48h22.5V39.1V25.3H-30z M-55.2,47.6l3.6-6.1
	c-1.3-1.1-2.2-2.7-2.2-4.5c0-3.6,3.3-6.4,7.1-5.6c2.1,0.4,3.9,2.1,4.4,4.2c0.6,2.4-0.4,4.6-2.1,5.9l3.6,6.1H-55.2z"/>
<g>
	<path d="M49.6,21.7h-0.2v-5.1c0-9.4-7.5-16.4-16.8-16.6c-0.3,0-0.8,0-1,0c-9.4,0.2-16.8,7.1-16.8,16.6v5.1h-0.2
		c-1.7,0-3.9,2.6-3.9,4.7v23.8c0,2.1,2.2,4.8,3.9,4.8h35.1c1.7,0,3.9-2.6,3.9-4.8V26.4C53.5,24.3,51.3,21.7,49.6,21.7z M34.6,38.3
		l0.9,7.7c0,0.9-0.7,1.6-1.6,1.6h-3.7c-0.9,0-1.6-0.7-1.6-1.6l0.9-7.7c-0.9-0.8-2.2-2-2.2-3.3c0-2.5,1.9-4.6,4.3-4.7
		c0.3,0,0.8,0,1,0c2.4,0.1,4.3,2.2,4.3,4.7C36.8,36.3,35.4,37.4,34.6,38.3z M40.4,21.7h-7.9h-1h-7.9v-5.1c0-5.6,2.8-8.5,8.4-8.5
		s8.4,2.9,8.4,8.5L40.4,21.7L40.4,21.7z"/>
</g>
</svg>
