<?xml version="1.0" encoding="utf-8"?>
<!-- Generator: Adobe Illustrator 24.1.1, SVG Export Plug-In . SVG Version: 6.00 Build 0)  -->
<svg version="1.1" id="Layer_1" xmlns="http://www.w3.org/2000/svg" xmlns:xlink="http://www.w3.org/1999/xlink" x="0px" y="0px"
	 width="64px" height="64px" viewBox="0 0 64 64" style="enable-background:new 0 0 64 64;" xml:space="preserve">
<style type="text/css">
	.st0{fill:#885533;}
	.st1{fill:#FFFFFF;stroke:#000000;stroke-miterlimit:10;}
	.st2{fill:#FFFFFF;stroke:#000000;stroke-width:0.5;stroke-miterlimit:10;}
</style>
<g>
	<circle class="st0" cx="32" cy="32" r="30"/>
</g>
<g>
	<path class="st1" d="M54.1,29.7h-2.5c-0.9-9.2-8.4-16.5-17.5-17.5V9.9c0-1.2-0.9-2.2-2.2-2.2c-1.2,0-2.2,0.9-2.2,2.2v2.4
		c-9.2,0.9-16.5,8.4-17.5,17.5H9.9c-1.2,0-2.2,0.9-2.2,2.2s0.9,2.2,2.2,2.2h2.4c0.9,9.2,8.4,16.5,17.5,17.5v2.4
		c0,1.2,0.9,2.2,2.2,2.2s2.2-0.9,2.2-2.2v-2.4c9.2-0.9,16.5-8.4,17.5-17.5h2.4c1.2,0,2.2-0.9,2.2-2.2C56.1,30.7,55.2,29.7,54.1,29.7
		z M40.8,34.1h6.5c-0.9,6.8-6.4,12.1-13.2,13.2v-6.5c0-1.2-0.9-2.2-2.2-2.2c-1.2,0-2.2,0.9-2.2,2.2v6.5c-6.8-0.9-12.1-6.4-13.2-13.2
		H23c1.2,0,2.2-0.9,2.2-2.2c0-1.2-0.9-2.2-2.2-2.2h-6.5C17.5,23,23,17.6,29.7,16.6V23c0,1.2,0.9,2.2,2.2,2.2s2.2-0.9,2.2-2.2v-6.5
		c6.8,0.9,12.1,6.4,13.2,13.2h-6.5c-1.2,0-2.2,0.9-2.2,2.2C38.6,33.2,39.6,34.1,40.8,34.1z"/>
	<circle class="st2" cx="32" cy="32" r="2.6"/>
</g>
</svg>
