<?xml version="1.0" encoding="utf-8"?>
<!-- Generator: Adobe Illustrator 24.1.1, SVG Export Plug-In . SVG Version: 6.00 Build 0)  -->
<svg version="1.1" id="Layer_1" xmlns="http://www.w3.org/2000/svg" xmlns:xlink="http://www.w3.org/1999/xlink" x="0px" y="0px"
	 width="64px" height="64px" viewBox="0 0 64 64" style="enable-background:new 0 0 64 64;" xml:space="preserve">
<style type="text/css">
	.st0{fill:#FFFFFF;stroke:#000000;stroke-width:2;stroke-linejoin:round;stroke-miterlimit:10;}
	.st1{stroke:#000000;stroke-width:2;stroke-linejoin:round;stroke-miterlimit:10;}
	.st2{stroke:#000000;stroke-width:0.5;stroke-linejoin:round;stroke-miterlimit:10;}
</style>
<g>
	<g>
		<polygon class="st0" points="44.8,25.6 41.7,28.8 39.3,31.1 33.8,25.6 36.2,23.3 39.3,20.1 		"/>
		
			<rect x="-0.6" y="40.1" transform="matrix(0.7071 -0.7071 0.7071 0.7071 -24.9316 27.7251)" class="st1" width="43.3" height="7.8"/>
	</g>
	<path class="st2" d="M45.5,17.5l7.8-7.8l1.9,1.9l-7.8,7.8C47,18.7,46.3,18,45.5,17.5z"/>
	<path class="st2" d="M40.3,2l2.6,0.7l-3,11.2c-0.8-0.4-1.7-0.7-2.6-0.7L40.3,2z"/>
	<path class="st2" d="M60.3,22.5l0.7,2.6l-10,2.7c0-0.9-0.3-1.8-0.7-2.6L60.3,22.5z"/>
</g>
</svg>
