<?xml version="1.0" encoding="utf-8"?>
<!-- Generator: Adobe Illustrator 24.1.1, SVG Export Plug-In . SVG Version: 6.00 Build 0)  -->
<svg version="1.1" id="Layer_1" xmlns="http://www.w3.org/2000/svg" xmlns:xlink="http://www.w3.org/1999/xlink" x="0px" y="0px"
	 width="64px" height="64px" viewBox="0 0 64 64" style="enable-background:new 0 0 64 64;" xml:space="preserve">
<style type="text/css">
	.st0{fill:#444444;stroke:#000000;stroke-width:4;stroke-linecap:square;stroke-linejoin:round;stroke-miterlimit:10;}
	.st1{fill:#FFFFFF;stroke:#000000;stroke-width:0.5;stroke-linecap:round;stroke-linejoin:round;stroke-miterlimit:10;}
</style>
<rect x="10.6" y="2" class="st0" width="43" height="60.2"/>
<g>
	<path class="st1" d="M47.6,23.5c0,0,3,5-1.1,10.2c-1.2,1.5-3.8,3.8-8.2,2.7c-2.7-0.6-5.6-2.6-5.6-2.6c9.2,3.6,13.9-2.1,12.9-7.2
		c-0.9-5.1-5.4-7.2-9-5.5c-3.6,1.7-3.8,6-2.1,7.4c0,0-0.7-1.3,0.7-2.8c1.4-1.5,4.1-1.3,4.7,1.1c0.6,2.4-1.8,4.9-8,2.8
		c-6.3-2.1-12.8-1.8-19.3,3.4c0,0,3.4-1.5,7-1.2c2.6,0.2,6.1,1.4,13.6,6.1c6.1,3.8,11.5,1.8,14.4-1.3C53.7,30.3,47.6,23.5,47.6,23.5
		z"/>
	<path class="st1" d="M15.1,33.8c0,0,5.8-0.7,9.9,2.5c4,3.2,1.8,7.2-1.5,7.2c0,0,2.6-3.2-0.5-6.1C19.5,34.3,15.1,33.8,15.1,33.8z"/>
</g>
</svg>
