<?xml version="1.0" encoding="utf-8"?>
<!-- Generator: Adobe Illustrator 24.1.1, SVG Export Plug-In . SVG Version: 6.00 Build 0)  -->
<svg version="1.1" id="Layer_1" xmlns="http://www.w3.org/2000/svg" xmlns:xlink="http://www.w3.org/1999/xlink" x="0px" y="0px"
	 width="64px" height="64px" viewBox="0 0 64 64" style="enable-background:new 0 0 64 64;" xml:space="preserve">
<style type="text/css">
	.st0{fill:#666666;stroke:#000000;stroke-width:4;stroke-linecap:square;stroke-linejoin:round;stroke-miterlimit:10;}
	.st1{fill:#FFFFFF;stroke:#000000;stroke-width:0.75;stroke-miterlimit:10;}
</style>
<rect x="10.6" y="2" class="st0" width="43" height="60.2"/>
<g>
	<path class="st1" d="M12.9,33.3c-1.9,0-1.9-2.9,0-2.9H38c2.9,0,6.3,0,9.2,1c8.3,3.3,6.4,15.8-2.5,16.7c-4.9,0.4-8.3-3.3-9.1-7.9
		c-0.4-1.9,2.5-2.1,2.9-0.4c0.5,3.3,2.4,5.7,5.8,5.4c6.2-0.5,7.2-9,1.8-11.1c-2.3-0.9-5.3-0.9-8.1-0.9H12.9z"/>
	<path class="st1" d="M12.9,26.9c-1.9,0-1.9-2.9,0-2.9h22.8c1.8,0,3.5,0,4.8-0.5c2.9-1.1,2.4-5.4-0.8-5.8c-1.9-0.1-2.8,1.1-3.1,2.9
		c-0.1,1.9-3.1,1.5-2.9-0.4c0.5-3.3,2.9-5.8,6.3-5.4c6.2,0.5,7.3,9.2,1.8,11.4c-1.9,0.8-4,0.8-6,0.8H12.9V26.9z"/>
	<path class="st1" d="M12.9,40.2c-1.9,0-1.9-2.9,0-2.9h12c1.8,0,3.9,0,5.8,0.8c5.7,2.1,4.4,10.7-1.8,11.2c-3.4,0.4-5.8-2.1-6.2-5.3
		c-0.4-1.9,2.5-2.4,2.8-0.5c0.4,1.8,1.4,3.1,3.1,2.9c3.3-0.1,3.8-4.6,1-5.8C28.3,40,26.5,40,24.8,40h-12V40.2z"/>
</g>
</svg>
