<?xml version="1.0" encoding="utf-8"?>
<!-- Generator: Adobe Illustrator 24.1.1, SVG Export Plug-In . SVG Version: 6.00 Build 0)  -->
<svg version="1.1" id="Layer_1" xmlns="http://www.w3.org/2000/svg" xmlns:xlink="http://www.w3.org/1999/xlink" x="0px" y="0px"
	 width="64px" height="64px" viewBox="0 0 64 64" style="enable-background:new 0 0 64 64;" xml:space="preserve">
<style type="text/css">
	.st0{fill:#808080;stroke:#000000;stroke-width:4;stroke-linecap:square;stroke-linejoin:round;stroke-miterlimit:10;}
	.st1{fill:#FFFFFF;stroke:#000000;stroke-miterlimit:10;}
</style>
<rect x="10.6" y="2" class="st0" width="43" height="60.2"/>
<g>
	<path class="st1" d="M16.8,33c-1.5,0-1.5-2.3,0-2.3h20c2.3,0,5,0,7.3,0.8c6.6,2.6,5.1,12.6-2,13.3c-3.9,0.3-6.6-2.6-7.2-6.3
		c-0.3-1.5,2-1.7,2.3-0.3c0.4,2.6,1.9,4.5,4.6,4.3c4.9-0.4,5.7-7.2,1.4-8.8C41.4,33,39,33,36.8,33C36.8,33,16.8,33,16.8,33z"/>
	<path class="st1" d="M16.8,27.9c-1.5,0-1.5-2.3,0-2.3h18.1c1.4,0,2.8,0,3.8-0.4c2.3-0.9,1.9-4.3-0.6-4.6c-1.5-0.1-2.2,0.9-2.5,2.3
		c-0.1,1.5-2.5,1.2-2.3-0.3c0.4-2.6,2.3-4.6,5-4.3c4.9,0.4,5.8,7.3,1.4,9.1c-1.5,0.6-3.2,0.6-4.8,0.6H16.8z"/>
	<path class="st1" d="M16.8,38.5c-1.5,0-1.5-2.3,0-2.3h9.5c1.4,0,3.1,0,4.6,0.6c4.5,1.7,3.5,8.5-1.4,8.9c-2.7,0.3-4.6-1.7-4.9-4.2
		c-0.3-1.5,2-1.9,2.2-0.4c0.3,1.4,1.1,2.5,2.5,2.3c2.6-0.1,3-3.7,0.8-4.6c-1-0.4-2.5-0.4-3.8-0.4H16.8z"/>
</g>
</svg>
