<?xml version="1.0" encoding="utf-8"?>
<!-- Generator: Adobe Illustrator 24.1.1, SVG Export Plug-In . SVG Version: 6.00 Build 0)  -->
<svg version="1.1" xmlns="http://www.w3.org/2000/svg" xmlns:xlink="http://www.w3.org/1999/xlink" x="0px" y="0px" width="64px"
	 height="64px" viewBox="0 0 64 64" style="enable-background:new 0 0 64 64;" xml:space="preserve">
<style type="text/css">
	.st0{fill:#555555;}
	.st1{fill:#FFFFFF;stroke:#000000;stroke-linecap:round;stroke-linejoin:round;stroke-miterlimit:10;}
</style>
<g id="Layer_1">
	<g>
		<circle class="st0" cx="32" cy="32" r="30"/>
	</g>
	<g>
		<path class="st1" d="M51.7,21.1c0,0,3.9,6.4-1.5,13.1c-1.6,2-4.9,4.9-10.5,3.5c-3.4-0.8-7.1-3.4-7.1-3.4
			C44.5,39,50.4,31.6,49.3,25c-1.1-6.5-6.9-9.3-11.6-7.1c-4.6,2.2-4.9,7.8-2.7,9.6c0,0-1-1.7,0.9-3.6c1.8-2,5.3-1.7,6.1,1.4
			s-2.3,6.3-10.3,3.6c-8.1-2.7-16.4-2.4-24.8,4.4c0,0,4.3-1.9,9.1-1.6c3.3,0.2,7.9,1.8,17.5,7.8c7.9,4.9,14.8,2.3,18.5-1.6
			C59.5,29.8,51.7,21.1,51.7,21.1z"/>
		<path class="st1" d="M9.9,34.3c0,0,7.5-0.9,12.7,3.2s2.3,9.2-2,9.3c0,0,3.3-4.2-0.7-7.9C15.6,34.9,9.9,34.3,9.9,34.3z"/>
	</g>
</g>
<g id="Layer_2">
</g>
</svg>
