<svg xmlns="http://www.w3.org/2000/svg" xmlns:xlink="http://www.w3.org/1999/xlink" version="1.1" x="0px" y="0px" viewBox="0 0 72 90" enable-background="new 0 0 72 72" xml:space="preserve"><path fill="#000000" d="M70.1,63.1c-0.9-0.9-2-1.4-3.1-1.4c-0.2,0-0.4-0.1-0.6-0.3c-1.3-1.9-3-4-5-6c-2.4-2.4-4.9-4.4-7.1-5.7  C54,49.5,54,49.2,54.2,49l5.9-5.9c1.3-1.3,1.4-3.6,0.3-5l0,0c-1.2-1.4-3.2-1.6-4.5-0.2l-5.1,5.1c-0.2,0.2-0.5,0.2-0.7,0l-4.9-5.6  c-0.3-0.4-0.3-0.9,0.1-1.2L64,19.9c0.1-0.1,0.2-0.3,0.3-0.4L71.4,2c0.4-0.9-0.5-1.8-1.5-1.5L52.5,7.7c-0.2,0.1-0.3,0.2-0.4,0.3  L36.7,25.9c-0.4,0.4-1,0.4-1.3,0L19.9,8c-0.1-0.1-0.3-0.2-0.4-0.3L2,0.6C1.1,0.2,0.2,1.1,0.6,2l7.1,17.4c0.1,0.2,0.2,0.3,0.3,0.4  l18.8,16.2c0.4,0.3,0.4,0.9,0.1,1.2L22,42.9c-0.2,0.2-0.5,0.2-0.7,0l-5.1-5.1c-1.3-1.3-3.3-1.2-4.5,0.2l0,0c-1.2,1.4-1,3.7,0.3,5  l5.9,5.9c0.2,0.2,0.2,0.5-0.1,0.7c-2.2,1.3-4.7,3.3-7.1,5.7c-2,2-3.7,4.1-5,6c-0.1,0.2-0.3,0.3-0.6,0.3c-1.1,0.1-2.3,0.6-3.1,1.4  c-2.2,2.2-1.9,5.9,0.8,7.7c1.7,1.1,3.9,1,5.5-0.1c1.3-0.9,2-2.3,2.1-3.7c0-0.2,0.1-0.4,0.3-0.6c1.9-1.3,4-3,6-5  c2.4-2.4,4.4-4.9,5.7-7.1c0.1-0.2,0.5-0.3,0.7-0.1l6,6c1.3,1.3,3.4,1.5,4.7,0.3c1.4-1.3,1.5-3.5,0.1-4.9L29,50.7  c-0.2-0.2-0.2-0.5,0-0.7l6.4-5.5c0.3-0.3,0.8-0.3,1.2,0l6.4,5.5c0.2,0.2,0.2,0.5,0,0.7l-4.7,4.7c-1.3,1.3-1.5,3.4-0.3,4.7  c1.3,1.4,3.5,1.5,4.9,0.1l6.2-6.2c0.2-0.2,0.5-0.2,0.7,0.1c1.3,2.2,3.3,4.7,5.7,7.1c2,2,4.1,3.7,6,5c0.2,0.1,0.3,0.3,0.3,0.6  c0.1,1.4,0.8,2.8,2.1,3.7c1.6,1.2,3.9,1.2,5.5,0.1C72,68.9,72.2,65.2,70.1,63.1z"/>></svg>