<?xml version="1.0" encoding="utf-8"?>
<!-- Generator: Adobe Illustrator 24.1.1, SVG Export Plug-In . SVG Version: 6.00 Build 0)  -->
<svg version="1.1" id="Layer_1" xmlns="http://www.w3.org/2000/svg" xmlns:xlink="http://www.w3.org/1999/xlink" x="0px" y="0px"
	 width="64px" height="64px" viewBox="0 0 64 64" style="enable-background:new 0 0 64 64;" xml:space="preserve">
<style type="text/css">
	.st0{fill:#2F6530;}
	.st1{fill:#433323;}
	.st2{fill:#E5E5E5;}
</style>
<path class="st0" d="M61.9,29.5C60.7,15,48.9,3.3,34.4,2.1C15.9,0.6,0.6,16,2.1,34.5c1.2,14.6,13,26.2,27.5,27.4
	C48.1,63.4,63.4,48,61.9,29.5z"/>
<g>
	<g>
		<path class="st1" d="M30.3,30.4v20.9c0,3.3,3.1,3.3,3.1,0V30.4C32.3,30.2,31.1,30.2,30.3,30.4z"/>
		<path class="st1" d="M33.4,18.7v-2.9c0.1-2.7-3.1-2.7-3,0v2.9C31.3,18.8,32.4,18.8,33.4,18.7z"/>
		<path class="st2" d="M43,14.7c-4.9,8.2-17.4,8.2-22.1,0c-7.5,4.2-7.5,15.9,0,20.1c4.9-8.2,17.4-8.2,22.1,0
			C50.4,30.6,50.4,18.8,43,14.7z"/>
		<path d="M43.4,12.5c-0.5-0.2-1-0.1-1.3,0.4c-1.5,2.5-3.7,4.5-6.5,5.5c1.1-8.6-8.2-8.6-6.9,0c-3.5-0.7-5-4.4-7.6-6
			c-4.5,2.2-7.7,7.1-7.7,12.5c0,5.2,3.2,10,7.5,12.4c0.5,0.2,1,0.1,1.3-0.4c1.5-2.5,3.7-4.5,6.5-5.4c0,0.5,0,19.5,0,19.8
			c0,2.1,1.1,4.4,3.5,4.4s3.5-2.3,3.5-4.4c0-0.5,0-19.5,0-19.8c2.7,0.8,5,3,6.5,5.4c0.2,0.5,0.8,0.7,1.3,0.4
			C53,32.4,53,17,43.4,12.5z M30.4,15.8c-0.1-2.7,3.1-2.7,3,0v2.9c-0.9,0.2-2,0.2-3,0C30.4,18.7,30.4,15.8,30.4,15.8z M33.3,51
			c0,3.2-3,3.2-3,0V30.9c0.9-0.2,2-0.2,3,0V51z M43,34.8c-4.7-8.2-17.3-8.2-22.1,0c-7.5-4.2-7.5-15.9,0-20.1
			c4.7,8.2,17.3,8.2,22.1,0C50.4,18.8,50.4,30.6,43,34.8z"/>
	</g>
</g>
</svg>
