<?xml version="1.0" encoding="utf-8"?>
<!-- Generator: Adobe Illustrator 24.1.1, SVG Export Plug-In . SVG Version: 6.00 Build 0)  -->
<svg version="1.1" id="Layer_1" xmlns="http://www.w3.org/2000/svg" xmlns:xlink="http://www.w3.org/1999/xlink" x="0px" y="0px"
	 width="64px" height="64px" viewBox="0 0 64 64" style="enable-background:new 0 0 64 64;" xml:space="preserve">
<style type="text/css">
	.st0{fill:#CFE6CF;}
	.st1{fill:#006600;stroke:#000000;stroke-linejoin:round;stroke-miterlimit:10;}
</style>
<g>
	<circle class="st0" cx="32" cy="32" r="30"/>
</g>
<path class="st1" d="M48,15c0,1.8,0,15.1-6.7,22.3c-6.4,6.6-13,8.4-17.7,6.2l-5.3,5.3c-0.5,0.5-1.2,0.5-1.8,0
	c-0.5-0.5-0.5-1.2,0-1.8l7.8-7.8h5.4c0.7,0,1.2-0.6,1.2-1.2s-0.6-1.2-1.2-1.2h-2.8l7.3-7.3h5.4c0.7,0,1.2-0.6,1.2-1.2
	s-0.6-1.2-1.2-1.2h-2.8l2.6-2.6c0.5-0.5,0.5-1.2,0-1.8c-0.5-0.6-1.2-0.5-1.8,0l-7.8,7.9v-4.7c0-0.7-0.6-1.2-1.2-1.2
	s-1.2,0.6-1.2,1.2v7.2l-7.3,7.2c-2.1-3.6-2.4-10.9,4.1-17.4c8.8-8.8,14.2-4.5,23.8-8C47.9,14.8,48,14.9,48,15z"/>
</svg>
