<?xml version="1.0" encoding="utf-8"?>
<!-- Generator: Adobe Illustrator 24.1.1, SVG Export Plug-In . SVG Version: 6.00 Build 0)  -->
<svg version="1.1" id="Layer_1" xmlns="http://www.w3.org/2000/svg" xmlns:xlink="http://www.w3.org/1999/xlink" x="0px" y="0px"
	 width="64px" height="64px" viewBox="0 0 64 64" style="enable-background:new 0 0 64 64;" xml:space="preserve">
<style type="text/css">
	.st0{fill:#FFE9E9;stroke:#000000;stroke-width:4;stroke-linecap:square;stroke-linejoin:round;stroke-miterlimit:10;}
	.st1{fill:#AA0000;stroke:#000000;stroke-miterlimit:10;}
</style>
<rect x="10.5" y="1.9" class="st0" width="43" height="60.2"/>
<g>
	<g>
		<path class="st1" d="M40.2,32.4C42.1,35.3,51,50,35.5,52.6c0.4-0.5,0.8-1,0.9-1.8c1.4-3.9-3.2-6.9-3.2-6.9
			c1.9,2.6,1.1,4.5,1.1,4.5c-8.1-3-4.9-13.7-4.9-13.7C23.9,41,24.2,49,28.4,52.8c-16.3-2-7.4-23.1-7.4-23.1c1.1-3.9-1.9-5.5-1.9-5.5
			c5.3,0.5,6.6,4.8,6.6,4.8c0.7-4.8,4.8-6.1,8.7-11c3.5-4.5,1.1-6.3,0.6-6.6c4.8,0.8,4.8,8,2.1,10.9c-1.7,1.8,0,4.8,2.3,4.3
			c5.2-1.1,6.2,3,6.2,3c-4.5-1.4-5.6-0.1-5.8,1C39.7,31.2,39.9,31.9,40.2,32.4z"/>
	</g>
</g>
</svg>
