<?xml version="1.0" encoding="utf-8"?>
<!-- Generator: Adobe Illustrator 24.1.1, SVG Export Plug-In . SVG Version: 6.00 Build 0)  -->
<svg version="1.1" id="Layer_1" xmlns="http://www.w3.org/2000/svg" xmlns:xlink="http://www.w3.org/1999/xlink" x="0px" y="0px"
	 width="64px" height="64px" viewBox="0 0 64 64" style="enable-background:new 0 0 64 64;" xml:space="preserve">
<style type="text/css">
	.st0{fill:#BEB1B2;}
	.st1{fill:#744820;}
	.st2{fill:none;}
	.st3{fill:#580C00;stroke:#000000;stroke-miterlimit:10;}
	.st4{fill:#FCBF49;}
</style>
<path class="st0" d="M61.9,29.5C60.7,15,48.9,3.3,34.4,2.1C15.9,0.6,0.6,16,2.1,34.5c1.2,14.6,13,26.2,27.5,27.4
	C48.1,63.4,63.4,48,61.9,29.5z"/>
<g>
	<g>
		<path class="st1" d="M44.5,31.9c0.3-2.7,1.8-5.5,4.8-6.2c0.5-10.4-8.4-16.1-17.2-16.1l0,0c-8.9,0-17.7,5.6-17.1,16.1
			c2.8,0.8,4.5,3.5,4.8,6.2c-0.3,2.7-1.8,5.5-4.8,6.2c-0.5,10.4,8.3,16.1,17.1,16.1l0,0c8.9,0,17.7-5.6,17.1-16.1
			C46.3,37.4,44.6,34.6,44.5,31.9z"/>
		<g>
			<path class="st2" d="M43.3,32L43.3,32v-0.2c0.3-3.2,2.1-5.8,4.8-7c0-3.6-1.3-6.7-3.6-9.1c-3-3.1-7.5-4.9-12.5-4.9h-0.1
				c-5,0-9.4,1.8-12.5,4.9c-2.4,2.4-3.6,5.6-3.6,9.1c2.6,1.1,4.5,3.7,4.8,7v0.1V32c-0.3,3.2-2.1,5.8-4.8,7c0,3.6,1.3,6.7,3.6,9.1
				c3,3.1,7.5,4.9,12.5,4.9H32c5,0,9.5-1.8,12.5-4.9c2.4-2.4,3.6-5.6,3.6-9.1C45.5,37.8,43.7,35.2,43.3,32z"/>
			<path class="st3" d="M49.7,36.1c-1.9-0.6-2.9-2.5-3.1-4.2c0.2-1.7,1.1-3.6,3.1-4.2l1.6-0.4l0.1-1.6c0.2-4.8-1.4-9-4.5-12.3
				c-3.1-3.3-7.7-5.4-12.7-5.8l0,0l-2.2,0c-5.8,0-11.3,2.1-14.9,5.9c-3.1,3.2-4.7,7.5-4.5,12.3l0.1,1.6l1.6,0.4
				c1.9,0.6,2.9,2.5,3.1,4.2c-0.2,1.7-1.1,3.6-3.1,4.2l-1.6,0.4l-0.1,1.6c-0.2,4.8,1.4,9,4.5,12.3c3.6,3.9,8.9,5.9,14.9,5.9h1
				l1.1-0.1l0,0c5.1-0.5,9.5-2.5,12.7-5.8c3.1-3.2,4.7-7.5,4.5-12.3l-0.1-1.6L49.7,36.1z M19.4,48.1c-2.4-2.4-3.6-5.6-3.6-9.1
				c2.6-1.1,4.5-3.7,4.8-7v-0.1v-0.1c-0.3-3.2-2.1-5.8-4.8-7c0-3.5,1.3-6.7,3.6-9.1c3-3.1,7.5-4.9,12.5-4.9H32c5,0,9.4,1.8,12.5,4.9
				c2.4,2.4,3.6,5.6,3.6,9.1c-2.6,1.1-4.5,3.7-4.8,7v0.1V32c0.3,3.2,2.1,5.8,4.8,7c0,3.5-1.3,6.7-3.6,9.1C41.6,51.2,37,53,32,53
				h-0.1C26.9,53,22.5,51.3,19.4,48.1z"/>
		</g>
	</g>
	<g>
		<path class="st4" d="M32,37.6c-3.2,0-5.6-2.5-5.6-5.6s2.5-5.6,5.6-5.6s5.6,2.5,5.6,5.6S35.2,37.6,32,37.6z"/>
		<path d="M32,26.9c2.8,0,5.1,2.3,5.1,5.1s-2.3,5.1-5.1,5.1s-5.1-2.3-5.1-5.1S29.2,26.9,32,26.9 M32,25.9c-3.4,0-6.1,2.7-6.1,6.1
			s2.7,6.1,6.1,6.1s6.1-2.7,6.1-6.1S35.4,25.9,32,25.9L32,25.9z"/>
	</g>
	<g>
		<circle class="st4" cx="27" cy="48.2" r="1.6"/>
		<path d="M27,46.8c0.8,0,1.4,0.6,1.4,1.4c0,0.8-0.6,1.4-1.4,1.4s-1.4-0.6-1.4-1.4C25.6,47.5,26.2,46.8,27,46.8 M27,46.3
			c-1,0-1.9,0.8-1.9,1.9c0,1.1,0.8,1.9,1.9,1.9s1.9-0.9,1.9-2S28,46.3,27,46.3L27,46.3z"/>
	</g>
	<g>
		<path class="st4" d="M37,49.9c-0.9,0-1.6-0.7-1.6-1.6s0.7-1.6,1.6-1.6c0.9,0,1.6,0.7,1.6,1.6S37.9,49.9,37,49.9z"/>
		<path d="M37,46.8c0.8,0,1.4,0.6,1.4,1.4c0,0.8-0.6,1.4-1.4,1.4c-0.8,0-1.4-0.6-1.4-1.4C35.6,47.5,36.2,46.8,37,46.8 M37,46.3
			c-1,0-1.9,0.8-1.9,1.9c0,1.1,0.8,1.9,1.9,1.9c1.1,0,1.9-0.8,1.9-1.9C38.9,47.2,38,46.3,37,46.3L37,46.3z"/>
	</g>
	<g>
		<circle class="st4" cx="27" cy="15.8" r="1.6"/>
		<path d="M27,14.4c0.8,0,1.4,0.6,1.4,1.4s-0.6,1.4-1.4,1.4s-1.4-0.6-1.4-1.4C25.6,15,26.2,14.4,27,14.4 M27,13.9
			c-1,0-1.9,0.8-1.9,1.9s0.8,1.9,1.9,1.9s1.9-0.8,1.9-1.9S28,13.9,27,13.9L27,13.9z"/>
	</g>
	<g>
		<path class="st4" d="M37,17.5c-0.9,0-1.6-0.7-1.6-1.6s0.7-1.6,1.6-1.6c0.9,0,1.6,0.7,1.6,1.6C38.6,16.7,37.9,17.5,37,17.5z"/>
		<path d="M37,14.4c0.8,0,1.4,0.6,1.4,1.4s-0.6,1.4-1.4,1.4c-0.8,0-1.4-0.6-1.4-1.4C35.6,15,36.2,14.4,37,14.4 M37,13.9
			c-1,0-1.9,0.8-1.9,1.9s0.8,1.9,1.9,1.9c1.1,0,1.9-0.8,1.9-1.9S38,13.9,37,13.9L37,13.9z"/>
	</g>
	<g>
		<path class="st4" d="M23.3,38.6c-0.9,0-1.6-0.7-1.6-1.6c0-0.9,0.7-1.6,1.6-1.6s1.6,0.7,1.6,1.6C24.9,37.9,24.2,38.6,23.3,38.6z"/>
		<path d="M23.3,35.6c0.8,0,1.4,0.6,1.4,1.4c0,0.8-0.6,1.4-1.4,1.4c-0.8,0-1.4-0.6-1.4-1.4C21.9,36.2,22.5,35.6,23.3,35.6
			 M23.3,35.1c-1,0-1.9,0.8-1.9,1.9c0,1,0.8,1.9,1.9,1.9s1.9-0.8,1.9-1.9C25.2,36,24.4,35.1,23.3,35.1L23.3,35.1z"/>
	</g>
	<g>
		<circle class="st4" cx="23.3" cy="27" r="1.6"/>
		<path d="M23.3,25.6c0.8,0,1.4,0.6,1.4,1.4s-0.6,1.4-1.4,1.4c-0.8,0-1.4-0.6-1.4-1.4S22.5,25.6,23.3,25.6 M23.3,25.1
			c-1,0-1.9,0.8-1.9,1.9s0.8,1.9,1.9,1.9s1.9-0.8,1.9-1.9S24.4,25.1,23.3,25.1L23.3,25.1z"/>
	</g>
	<g>
		<path class="st4" d="M40.7,38.6c-0.9,0-1.6-0.7-1.6-1.6c0-0.9,0.7-1.6,1.6-1.6c0.9,0,1.6,0.7,1.6,1.6
			C42.4,37.9,41.7,38.6,40.7,38.6z"/>
		<path d="M40.7,35.6c0.8,0,1.4,0.6,1.4,1.4c0,0.8-0.6,1.4-1.4,1.4c-0.8,0-1.4-0.6-1.4-1.4C39.3,36.2,39.9,35.6,40.7,35.6
			 M40.7,35.1c-1,0-1.9,0.8-1.9,1.9c0,1,0.8,1.9,1.9,1.9c1.1,0,1.9-0.8,1.9-1.9C42.6,36,41.8,35.1,40.7,35.1L40.7,35.1z"/>
	</g>
	<g>
		<path class="st4" d="M41.2,28.6c-0.9,0-1.6-0.7-1.6-1.6s0.7-1.6,1.6-1.6s1.6,0.7,1.6,1.6S42.1,28.6,41.2,28.6z"/>
		<path d="M41.2,25.6c0.8,0,1.4,0.6,1.4,1.4s-0.6,1.4-1.4,1.4c-0.8,0-1.4-0.6-1.4-1.4S40.3,25.6,41.2,25.6 M41.2,25.1
			c-1,0-1.9,0.8-1.9,1.9s0.8,1.9,1.9,1.9c1.1,0,1.9-0.8,1.9-1.9S42.2,25.1,41.2,25.1L41.2,25.1z"/>
	</g>
</g>
</svg>
