<?xml version="1.0" encoding="utf-8"?>
<!-- Generator: Adobe Illustrator 24.1.1, SVG Export Plug-In . SVG Version: 6.00 Build 0)  -->
<svg version="1.1" id="Layer_1" xmlns="http://www.w3.org/2000/svg" xmlns:xlink="http://www.w3.org/1999/xlink" x="0px" y="0px"
	 width="64px" height="64px" viewBox="0 0 64 64" style="enable-background:new 0 0 64 64;" xml:space="preserve">
<style type="text/css">
	.st0{fill:#8450B0;}
	.st1{fill:#433323;}
	.st2{fill:#E5E5E5;}
	.st3{fill:#B38E6B;}
</style>
<path class="st0" d="M61.9,29.5C60.7,15,48.9,3.3,34.4,2.1C15.9,0.6,0.6,16,2.1,34.5c1.2,14.6,13,26.2,27.5,27.4
	C48.1,63.4,63.4,48,61.9,29.5z"/>
<g>
	<g>
		<path class="st1" d="M35.3,27.3c-6.8-6.2-11.8-9.5-19.5-9.6l0,0c-0.7,0-1.2-0.2-1.5-0.7s-0.6-0.8-0.6-1.4c0-1,0.8-2.1,2-2.1h0.1
			c8.6,0,16.4,3.2,23.2,9.6l0.5,0.5l-0.2,0.5l-3.7,3.7L35.3,27.3z"/>
		<path d="M15.9,14.2c8.2,0,15.8,2.9,23,9.5c0,0,0,0.1,0.1,0.1L35.8,27l0,0c-6.9-6.2-12-9.6-20.1-9.7l0,0c-2,0-2-3,0-3l0,0
			C15.9,14.2,15.9,14.2,15.9,14.2 M15.9,13.2h-0.2l0,0c-0.9,0-1.6,0.5-2.2,1.3c-0.6,0.8-0.6,1.9,0,2.7c0.5,0.8,1.3,1.3,2.2,1.3
			c7.6,0.1,12.3,3.2,19.2,9.5l0.8,0.8l0.8-0.8l3.2-3.2l0.8-0.8l-0.7-0.7l-0.1-0.1l0,0l0,0C32.5,16.3,24.6,13.2,15.9,13.2L15.9,13.2z
			"/>
	</g>
	<g>
		<g>
			<path class="st2" d="M16.1,18.1h1.4c0.8,0,1.5,0.1,2.3,0.3H20l25.7,25.4V44c0.2,0.9,0.2,1.6,0.3,2.3l0.1,1.4L16.1,18.1z"/>
			<path d="M17.5,18.7c0.8,0,1.6,0.1,2.2,0.3l25.4,25.2c0.1,0.8,0.2,1.6,0.3,2.2L17.5,18.7 M14.8,17.6l1.8,1.8L44.5,47l1.8,1.8
				l-0.1-2.5c0-0.8-0.1-1.5-0.3-2.4l-0.1-0.3l-0.2-0.2L20.5,18.3L20.4,18l-0.3-0.1c-0.9-0.2-1.7-0.2-2.4-0.3H14.8L14.8,17.6z"/>
		</g>
		<g>
			<path class="st1" d="M48.2,50c-0.7,0-1.2-0.2-1.5-0.7c-0.3-0.3-0.6-0.8-0.6-1.5c-0.2-7.7-3.5-12.6-9.7-19.5L36,28.1l0.5-0.5
				l3.6-3.7l0.6,0.5c6.5,6.8,9.7,14.7,9.7,23.3c0,0.6-0.2,1-0.6,1.4C49.3,49.8,48.8,50,48.2,50z"/>
			<path d="M40.1,25C40.1,25.1,40.1,25.1,40.1,25c6.7,7.2,9.7,14.8,9.7,23.1c0,0.9-0.8,1.5-1.6,1.5s-1.6-0.6-1.6-1.5
				c-0.1-7.9-3.6-13-9.7-19.8l0,0L40.1,25 M40.1,23.6l-0.8,0.8l-3.2,3.2l-0.8,0.8l0.8,0.8c6.2,6.7,9.4,11.6,9.6,19.1
				c0,0.7,0.2,1.3,0.8,1.7c0.6,0.6,1.2,0.8,1.8,0.8s1.4-0.3,1.8-0.8c0.5-0.5,0.8-1,0.8-1.7c0-8.7-3.3-16.7-9.8-23.7l0,0l0,0L41,24.5
				L40.1,23.6L40.1,23.6z"/>
		</g>
		<g>
			<g>
				
					<rect x="16.8" y="30.1" transform="matrix(0.7051 -0.7092 0.7092 0.7051 -12.7912 32.2555)" class="st3" width="31.2" height="2.8"/>
				<path d="M42.5,20.1l0.7,0.7l0.7,0.7L22.3,42.8l-0.7-0.7l-0.5-0.6L42.5,20.1 M42.5,18.7l-0.8,0.7L20.4,40.9l-0.7,0.7l0.8,0.8
					l0.7,0.7l0.7,0.7l0.8,0.8l0.8-0.8l21.1-21.5l0.8-0.8l-0.8-0.8L43.8,20l-0.7-0.7L42.5,18.7L42.5,18.7z"/>
			</g>
			<g>
				<path class="st2" d="M42.8,21.1C42,20.3,40,18.3,40,18.3l7.8-2.1L45.7,24C45.6,23.8,43.6,22,42.8,21.1z"/>
				<path d="M46.9,16.9l-1.6,6c-0.7-0.7-1.5-1.5-2.2-2.2c-0.8-0.8-1.6-1.6-2.2-2.2L46.9,16.9 M48.4,15.5l-1.7,0.6l-6,1.6l-1.8,0.5
					l1.3,1.3c0.7,0.7,1.5,1.5,2.2,2.2c0.8,0.8,1.6,1.6,2.2,2.2l1.3,1.3l0.5-1.7l1.6-6L48.4,15.5L48.4,15.5z"/>
			</g>
			<g>
				<path class="st2" d="M18.5,45.4l-3.9-0.3l3.5-3.5h0.1c1.2-0.2,2.2-0.6,2.7-0.7l0.3-0.3l2,2L22.9,43c-0.1,0.3-0.5,1.6-0.7,2.7
					v0.1l-3.4,3.5L18.5,45.4z"/>
				<path d="M21.2,41.5l0.7,0.7l0.7,0.7c-0.1,0.1-0.8,2.8-0.8,2.8l-2.4,2.4l-0.2-3L19,45l-3-0.2l2.4-2.4
					C18.4,42.3,21.1,41.6,21.2,41.5 M21.2,40.1l-0.6,0.7c-0.5,0.1-1.6,0.5-2.4,0.7l-0.3,0.1h-0.2L15.3,44l-1.6,1.6l2.2,0.2l2.2,0.2
					l0.2,2.2l0.2,2.2l1.6-1.6l2.4-2.4l0.2-0.2l0.1-0.3c0.2-0.9,0.5-2.1,0.7-2.4l0.7-0.7L23.4,42l-0.7-0.5L22,40.9L21.2,40.1
					L21.2,40.1z"/>
			</g>
		</g>
	</g>
</g>
</svg>
