<?xml version="1.0" encoding="utf-8"?>
<!-- Generator: Adobe Illustrator 24.1.1, SVG Export Plug-In . SVG Version: 6.00 Build 0)  -->
<svg version="1.1" id="Layer_1" xmlns="http://www.w3.org/2000/svg" xmlns:xlink="http://www.w3.org/1999/xlink" x="0px" y="0px"
	 width="64px" height="64px" viewBox="0 0 64 64" style="enable-background:new 0 0 64 64;" xml:space="preserve">
<style type="text/css">
	.st0{fill:#5E3023;}
	.st1{fill:#FFFFFF;}
</style>
<g>
	<circle class="st0" cx="32" cy="32" r="30"/>
</g>
<g>
	<g>
		<path d="M46.7,23.3V16c0-2.4-1.9-4.3-4.3-4.3c-1.4,0-2.5,0.6-3.4,1.6c-0.8-1-2-1.6-3.4-1.6s-2.5,0.6-3.4,1.6c-0.8-1-2-1.6-3.4-1.6
			s-2.5,0.6-3.4,1.6c-0.8-1-2-1.6-3.4-1.6c-2.4,0-4.3,1.9-4.3,4.3v7.5V26v14.6l3.4,3.4v8.1H43V44l6.1-5.9V25.7L46.7,23.3z"/>
	</g>
	<g>
		<path class="st1" d="M39.8,16c0-1.4,1.1-2.5,2.5-2.5s2.6,1.1,2.6,2.5v6.7h-5L39.8,16L39.8,16z"/>
	</g>
	<g>
		<path class="st1" d="M33.2,16c0-1.4,1.1-2.5,2.5-2.5s2.6,1.1,2.6,2.5v6.7h-5L33.2,16L33.2,16z"/>
	</g>
	<g>
		<path class="st1" d="M26.5,16c0-1.4,1.1-2.5,2.5-2.5s2.5,1.1,2.5,2.5v6.7H30v0.9c0,1.4,0.5,2.8,1.1,4c-0.1,0.1-0.1,0.2-0.2,0.2
			c-0.5,0.5-1.1,0.8-1.8,0.8c-1.4,0-2.5-1.1-2.5-2.5C26.5,26.1,26.5,16,26.5,16z"/>
	</g>
	<g>
		<path class="st1" d="M19.8,23.6V16c0-1.4,1.1-2.5,2.5-2.5s2.5,1.1,2.5,2.5v10.1c0,1.4-1.1,2.5-2.5,2.5s-2.5-1.1-2.5-2.5V23.6z"/>
	</g>
	<g>
		<path class="st1" d="M47.5,37.6l-5.9,5.9v7.1H23.1v-7.1l-3.4-3.4V29.5c0.6,0.5,1.5,0.9,2.5,0.9c1.4,0,2.5-0.6,3.4-1.6
			c0.8,1,2,1.6,3.4,1.6c1.1,0,2.1-0.5,3-1.3l0.1-0.1c1.3,1.3,2.9,2,4.6,2.1c-1.1,1.1-1.8,2.5-1.8,4.3h1.6c0-2.4,1.9-4.3,4.3-4.3h1.6
			v-1.6h-5c-1.9,0-3.5-0.9-4.7-2.4c-0.5-0.8-1-1.6-1-2.7h6.7h7.3l2,2v11.1L47.5,37.6L47.5,37.6z"/>
	</g>
	<g>
		<path class="st1" d="M38.2,24.3h-6.7c0.1,1,0.5,1.9,1.1,2.7c1.1,1.4,2.9,2.4,4.7,2.4h5v1.7h-1.6c-2.4,0-4.3,1.9-4.3,4.3h-1.6
			c0-1.6,0.6-3.2,1.8-4.3c-1.8-0.1-3.4-1-4.6-2.1l-0.2,0.1c-0.8,0.8-1.9,1.3-3.1,1.3c-1.4,0-2.5-0.6-3.4-1.6c-0.8,1-2,1.6-3.4,1.6
			c-1,0-1.8-0.4-2.5-0.9V40l3.4,3.4v7.1h18.6v-7.2l5.9-5.9v-11l-2-2h-7.2C38.2,24.5,38.2,24.3,38.2,24.3z"/>
	</g>
</g>
</svg>
