<?xml version="1.0" encoding="utf-8"?>
<!-- Generator: Adobe Illustrator 24.1.1, SVG Export Plug-In . SVG Version: 6.00 Build 0)  -->
<svg version="1.1" id="Layer_1" xmlns="http://www.w3.org/2000/svg" xmlns:xlink="http://www.w3.org/1999/xlink" x="0px" y="0px"
	 width="64px" height="64px" viewBox="0 0 64 64" style="enable-background:new 0 0 64 64;" xml:space="preserve">
<style type="text/css">
	.st0{fill:#E5E5E5;}
</style>
<g>
	<path class="st0" d="M56.5,63.1c-0.1,0-0.3,0-0.4-0.1L38.3,45.1c-3.9,2.6-8.5,4-13.3,4C11.7,49.1,0.9,38.3,0.9,25
		C0.9,11.7,11.7,0.9,25,0.9c13.3,0,24.1,10.8,24.1,24.1c0,4.8-1.4,9.3-4,13.3L63,56.1c0.2,0.2,0.2,0.5,0,0.7L56.8,63
		C56.7,63.1,56.6,63.1,56.5,63.1z M25,7.8C15.5,7.8,7.8,15.5,7.8,25S15.5,42.2,25,42.2S42.2,34.5,42.2,25S34.5,7.8,25,7.8z"/>
	<path class="st0" d="M25,1.4C38,1.4,48.6,12,48.6,25c0,5-1.5,9.5-4.1,13.3l18.1,18.1l-6.1,6.1L38.3,44.5c-3.8,2.6-8.4,4.1-13.3,4.1
		C12,48.6,1.4,38,1.4,25S12,1.4,25,1.4 M25,42.7c9.8,0,17.7-7.9,17.7-17.7c0-9.8-7.9-17.7-17.7-17.7S7.3,15.2,7.3,25
		C7.3,34.8,15.2,42.7,25,42.7 M25,0.4C11.4,0.4,0.4,11.4,0.4,25s11,24.6,24.6,24.6c4.7,0,9.3-1.3,13.2-3.9l17.6,17.6
		c0.2,0.2,0.5,0.3,0.7,0.3c0.3,0,0.5-0.1,0.7-0.3l6.1-6.1c0.4-0.4,0.4-1,0-1.4L45.8,38.2c2.5-4,3.9-8.5,3.9-13.2
		C49.6,11.4,38.6,0.4,25,0.4L25,0.4z M25,41.7c-9.2,0-16.7-7.5-16.7-16.7c0-9.2,7.5-16.7,16.7-16.7S41.7,15.8,41.7,25
		C41.7,34.2,34.2,41.7,25,41.7L25,41.7z"/>
</g>
</svg>
