<?xml version="1.0" encoding="utf-8"?>
<!-- Generator: Adobe Illustrator 24.1.1, SVG Export Plug-In . SVG Version: 6.00 Build 0)  -->
<svg version="1.1" id="Layer_1" xmlns="http://www.w3.org/2000/svg" xmlns:xlink="http://www.w3.org/1999/xlink" x="0px" y="0px"
	 width="64px" height="64px" viewBox="0 0 64 64" style="enable-background:new 0 0 64 64;" xml:space="preserve">
<style type="text/css">
	.st0{fill:#355985;}
	.st1{fill:#B38E6B;stroke:#B38E6B;stroke-miterlimit:10;}
	.st2{fill:#E5E5E5;stroke:#E5E5E5;stroke-miterlimit:10;}
</style>
<path class="st0" d="M61.9,29.5C60.7,15,48.9,3.3,34.4,2.1C15.9,0.6,0.6,16,2.1,34.5c1.2,14.6,13,26.2,27.5,27.4
	C48.1,63.4,63.4,48,61.9,29.5z"/>
<g>
	<g>
		<polygon class="st1" points="46.4,33.5 45.2,32.7 37.8,42.8 38.8,43.5 40.7,41.1 44.2,36.1 		"/>
		<path class="st2" d="M41.3,34.6c-8.1-6.1-10.2-7.7-13.5-11.2c-2.5-2.9-3.8-5.8-4.8-9.4c-1.3,1.8-2.2,3.6-2.3,5
			c-0.2,1.9,0.2,3.7,1.7,6.1c2.6,4,6.1,6.7,15.8,13.7L41.3,34.6z"/>
		<polygon class="st1" points="43.1,41.8 50.1,46.9 52.4,43.7 45.4,38.5 		"/>
		<path d="M46.7,36.5l1.9-2.6c0.3-0.6,0.2-1.1-0.2-1.4l-2.9-2.2c-0.2-0.1-0.6-0.1-0.8-0.1c-0.3,0.1-0.6,0.2-0.7,0.5l-1.4,2.1
			c-8.2-6.1-10.2-7.6-13.2-10.9c-3-3.2-4-6-4.6-11.2c-0.1-0.6-0.7-0.9-1.2-0.8c-0.2,0.1-0.5,0.2-0.6,0.5c-2.4,3-3.7,5.7-4.3,8.2
			c-0.5,2.6,0.2,5,1.8,7.3c3,4.6,6.7,7.2,16.3,14.5l-1.7,2c-0.3,0.6-0.2,1.1,0.2,1.4l0.7,0.5l1.7,1.2l0.6,0.5
			c0.6,0.3,1.1,0.2,1.4-0.2l1.9-2.5l6.3,4.6l1.8,1c0.5,0.3,1.1,0.2,1.3-0.2l3.6-5c0.3-0.6,0.2-1.1-0.2-1.4L46.7,36.5z M22.3,25.2
			c-1.5-2.4-1.8-4.1-1.7-6.1c0.1-1.4,1-3.1,2.3-5c0.9,3.6,2.2,6.6,4.9,9.4c3.1,3.5,5.3,5.1,13.5,11.2l-3.1,4.1
			C28.4,31.7,24.9,29,22.3,25.2z M40.7,41.1l-1.7,2.4l-1-0.8l7.3-10l1.2,0.9l-2,2.6L40.7,41.1z M50.1,46.9l-7-5.2l2.4-3.1l7,5.2
			L50.1,46.9z"/>
	</g>
	<g>
		<polygon class="st1" points="17.8,33.5 18.9,32.7 26.3,42.8 25.2,43.5 23.4,41.1 19.9,36.1 		"/>
		<path class="st2" d="M22.8,34.6c8.1-6.1,10.2-7.7,13.5-11.2c2.6-2.9,3.9-5.8,4.9-9.4c1.3,1.8,2.2,3.6,2.3,5
			c0.2,1.9-0.2,3.7-1.7,6.1c-2.7,4-6.2,6.7-15.8,13.7L22.8,34.6z"/>
		<polygon class="st1" points="21,41.8 14,46.9 11.7,43.7 18.6,38.5 		"/>
		<path d="M9.7,42.5c-0.5,0.3-0.6,0.9-0.2,1.4l3.6,5c0.2,0.5,0.9,0.6,1.3,0.2l1.7-1.2l6.3-4.6l1.9,2.5c0.3,0.5,0.9,0.6,1.4,0.2
			l0.6-0.5l1.7-1.2l0.7-0.5c0.5-0.3,0.6-0.9,0.2-1.4l-1.7-2c9.7-7.3,13.4-10,16.3-14.5c1.7-2.3,2.3-4.7,1.8-7.3
			c-0.6-2.4-1.8-5.2-4.3-8.2c-0.1-0.2-0.4-0.3-0.6-0.5c-0.6-0.1-1.1,0.3-1.2,0.8c-0.6,5.1-1.7,7.7-4.6,11.2
			c-2.9,3.2-5,4.9-13.2,10.9l-1.5-1.8c-0.2-0.2-0.5-0.3-0.7-0.5c-0.3,0-0.6,0-0.8,0.1l-2.9,2.1c-0.5,0.3-0.6,0.9-0.2,1.4l1.9,2.6
			L9.7,42.5z M25.9,38.8l-3.1-4.1c8.1-6.1,10.2-7.7,13.4-11.3c2.6-2.9,3.9-5.8,4.9-9.4c1.3,1.8,2.2,3.6,2.3,5
			c0.2,1.9-0.2,3.7-1.7,6.1C39.1,29,35.6,31.7,25.9,38.8z M19.9,36.1l-2-2.7l1.2-0.9l7.4,10l-1,0.8L23.7,41L19.9,36.1z M11.7,43.7
			l7-5.2l2.4,3.1l-7.2,5.3L11.7,43.7z"/>
	</g>
</g>
</svg>
