<?xml version="1.0" encoding="utf-8"?>
<!-- Generator: Adobe Illustrator 24.1.1, SVG Export Plug-In . SVG Version: 6.00 Build 0)  -->
<svg version="1.1" id="Layer_1" xmlns="http://www.w3.org/2000/svg" xmlns:xlink="http://www.w3.org/1999/xlink" x="0px" y="0px"
	 width="64px" height="64px" viewBox="0 0 64 64" style="enable-background:new 0 0 64 64;" xml:space="preserve">
<style type="text/css">
	.st0{fill:#C3E3F1;}
	.st1{fill-rule:evenodd;clip-rule:evenodd;fill:#0F3A93;stroke:#000000;stroke-linecap:round;stroke-miterlimit:5;}
</style>
<circle class="st0" cx="32" cy="32" r="30"/>
<path class="st1" d="M32,8.7c3,6.3,17.2,23.5,16.5,30.7c0,8.8-7.4,15.8-16.5,15.8c-9.2,0-16.5-7.1-16.5-15.8
	C14.6,32.3,29,14.8,32,8.7z M42.1,36c-0.4,5.4-4.3,7.1-7.6,9.7c-1.6,3.1,1.8,4.6,4.7,3.8c6.7-2.5,7.1-15.4,2.9-18.9
	C42.1,30.5,42.5,33.6,42.1,36L42.1,36z"/>
</svg>
