<?xml version="1.0" encoding="utf-8"?>
<!-- Generator: Adobe Illustrator 24.1.1, SVG Export Plug-In . SVG Version: 6.00 Build 0)  -->
<svg version="1.1" id="Layer_1" xmlns="http://www.w3.org/2000/svg" xmlns:xlink="http://www.w3.org/1999/xlink" x="0px" y="0px"
	 width="64px" height="64px" viewBox="0 0 64 64" style="enable-background:new 0 0 64 64;" xml:space="preserve">
<style type="text/css">
	.st0{fill:#C3E3F1;stroke:#000000;stroke-width:4;stroke-linecap:square;stroke-linejoin:round;stroke-miterlimit:10;}
	.st1{fill-rule:evenodd;clip-rule:evenodd;fill:#0F3A93;stroke:#000000;stroke-linecap:round;stroke-miterlimit:5;}
</style>
<rect x="10.6" y="2" class="st0" width="43" height="60.2"/>
<path class="st1" d="M32,9.7c2.9,6,16.5,22.5,15.9,29.5c0,8.4-7.2,15.2-15.9,15.2c-8.8,0-15.9-6.8-15.9-15.2
	C15.3,32.3,29.1,15.5,32,9.7z M41.7,35.8c-0.4,5.1-4.2,6.8-7.4,9.2c-1.6,3,1.7,4.5,4.6,3.6c6.4-2.4,6.8-14.7,2.8-18.1
	C41.7,30.5,42.1,33.5,41.7,35.8L41.7,35.8z"/>
</svg>
