<?xml version="1.0" encoding="utf-8"?>
<!-- Generator: Adobe Illustrator 24.1.1, SVG Export Plug-In . SVG Version: 6.00 Build 0)  -->
<svg version="1.1" id="Layer_1" xmlns="http://www.w3.org/2000/svg" xmlns:xlink="http://www.w3.org/1999/xlink" x="0px" y="0px"
	 width="64px" height="64px" viewBox="0 0 64 64" style="enable-background:new 0 0 64 64;" xml:space="preserve">
<style type="text/css">
	.st0{fill:#00D4C5;}
	.st1{fill:#E5E5E5;}
</style>
<polygon class="st0" points="54.3,14.4 29.9,38.7 25.3,34.1 49.6,9.7 55.1,8.9 "/>
<polygon class="st0" points="25.3,34.1 29.9,38.7 54.3,14.4 55.1,8.9 49.6,9.7 "/>
<g>
	<polygon points="56.8,12.4 29.7,39.5 24.5,34.3 51.6,7.2 57.8,6.2 	"/>
	<g>
		<path d="M63,3.8c-0.3-1.8-2-3-3.8-2.8l-8.7,1.3c-0.7,0.1-1.4,0.4-2,0.9L21.1,30.8l-0.5-0.5c-1-1-2.2-1.5-3.6-1.5
			c-1.3,0-2.6,0.5-3.6,1.5c-1.9,2-1.9,5.2,0,7.2l2,2l-2.8,2.8l0,0l-3.1,3.1c-0.8,0-1.5,0.2-2.3,0.4c-1.3,0.4-2.6,1.2-3.6,2.2
			c-3.4,3.4-3.4,9,0,12.4C5.2,62.1,7.4,63,9.7,63c0.1,0,0.1,0,0.2,0c3.6,0,7.2-2.7,8.2-6.1c0.2-0.7,0.4-1.5,0.4-2.3l4.5-4.5l0,0
			l1.5-1.5l2,2c1,1,2.2,1.5,3.6,1.5c1.4,0,2.6-0.5,3.6-1.5c1-1,1.5-2.2,1.5-3.6c0-1.4-0.5-2.6-1.5-3.6l-0.5-0.5l27.4-27.4
			c0.5-0.5,0.9-1.2,1-1.9L62.9,5C63,4.6,63,4.2,63,3.8z"/>
		<polygon class="st1" points="24.5,34.3 29.7,39.5 56.8,12.4 57.8,6.2 51.6,7.2 		"/>
	</g>
	<path d="M53.5,9.6L29.4,33.7c-0.6,0.6,0.3,1.5,0.9,0.9l24.1-24.1C55,9.9,54.1,9,53.5,9.6z"/>
</g>
<circle class="st1" cx="9.5" cy="54.5" r="3.3"/>
</svg>
