<?xml version="1.0" encoding="utf-8"?>
<!-- Generator: Adobe Illustrator 24.1.1, SVG Export Plug-In . SVG Version: 6.00 Build 0)  -->
<svg version="1.1" id="Layer_1" xmlns="http://www.w3.org/2000/svg" xmlns:xlink="http://www.w3.org/1999/xlink" x="0px" y="0px"
	 width="64px" height="64px" viewBox="0 0 64 64" style="enable-background:new 0 0 64 64;" xml:space="preserve">
<style type="text/css">
	.st0{fill:#D3D3D3;stroke:#000000;stroke-width:4;stroke-linecap:square;stroke-linejoin:round;stroke-miterlimit:10;}
</style>
<rect x="10.5" y="1.9" class="st0" width="43" height="60.2"/>
<g>
	<path d="M32,49.2c-1.4,0-2.7-0.2-3.8-0.7s-2.2-1.2-3.2-2c-0.9-0.8-1.7-1.8-2.5-2.9s-1.3-2.3-1.8-3.6c-0.5-1.3-0.8-2.6-1-4
		c-0.2-1.4-0.3-2.7-0.3-4c0-1.4,0.1-2.7,0.3-4.1c0.2-1.4,0.5-2.7,0.9-4c0.4-1.3,1-2.5,1.6-3.6c0.7-1.1,1.5-2.1,2.4-2.9
		c0.9-0.8,2-1.5,3.2-2c1.2-0.5,2.6-0.7,4.1-0.7c1.4,0,2.7,0.2,3.8,0.7c1.2,0.5,2.2,1.2,3.1,2c0.9,0.8,1.7,1.8,2.5,2.9
		s1.3,2.3,1.8,3.6s0.8,2.6,1,4c0.2,1.4,0.3,2.7,0.3,4c0,1.4-0.1,2.7-0.3,4.1c-0.2,1.4-0.5,2.7-0.9,4c-0.4,1.3-1,2.5-1.6,3.6
		c-0.7,1.1-1.5,2.1-2.4,2.9s-2,1.5-3.2,2C34.9,49,33.5,49.2,32,49.2z M27.2,31.1c0,0.8,0,1.6,0.1,2.5c0,0.9,0.1,1.9,0.3,2.8
		c0.1,0.9,0.3,1.8,0.5,2.7c0.2,0.9,0.5,1.7,0.9,2.4c0.4,0.7,0.8,1.2,1.3,1.7s1.1,0.6,1.9,0.6c0.6,0,1.2-0.2,1.7-0.5
		c0.5-0.3,0.9-0.7,1.2-1.3c0.3-0.5,0.6-1.2,0.9-1.9c0.2-0.7,0.4-1.5,0.5-2.3c0.1-0.8,0.2-1.6,0.3-2.5c0.1-0.8,0.1-1.7,0.1-2.5
		c0-0.8,0-1.6-0.1-2.5c0-0.9-0.1-1.9-0.3-2.8c-0.1-0.9-0.3-1.8-0.5-2.7c-0.2-0.9-0.5-1.7-0.9-2.4c-0.4-0.7-0.8-1.2-1.3-1.6
		c-0.5-0.4-1.1-0.6-1.9-0.6c-0.6,0-1.2,0.2-1.7,0.5c-0.5,0.3-0.9,0.7-1.2,1.3c-0.3,0.5-0.6,1.2-0.8,1.9c-0.2,0.7-0.4,1.5-0.5,2.3
		c-0.1,0.8-0.2,1.6-0.3,2.5S27.2,30.3,27.2,31.1z"/>
</g>
</svg>
